<?xml version="1.0" encoding="utf-8"?>
<!-- Generator: Adobe Illustrator 23.0.1, SVG Export Plug-In . SVG Version: 6.00 Build 0)  -->
<svg version="1.1" id="Layer_1" xmlns="http://www.w3.org/2000/svg" xmlns:xlink="http://www.w3.org/1999/xlink" x="0px" y="0px"
	 viewBox="0 0 1140.1 706.6" style="enable-background:new 0 0 1140.1 706.6;" xml:space="preserve">
<style type="text/css">
	.st0{fill:#396B89;}
	.st1{fill:#35637C;}
	.st2{fill:#E5CB37;}
	.st3{fill:#D2B202;}
	.st4{fill:#FFFFFF;}
	.st5{fill:#E6E7E8;}
	.st6{fill:#F1F2F2;}
	.st7{fill:#BCBEC0;}
</style>
<g>
	<path class="st4" d="M778.7,494.5c0.3,0.6,0.8,1.1,1.4,1.4c0.6,0.3,1.3,0.5,1.9,0.5c1.1,0,2.1-0.4,2.8-1.2c0.7-0.8,1.1-1.9,1.1-3.4
		v-5.5l3.6-3.4l6.2,9.5c0.3,0.5,0.6,1,0.9,1.6c0.4,0.7,1,1.3,1.6,1.7c0.7,0.5,1.5,0.7,2.5,0.7c1.1,0,2-0.3,2.7-1
		c0.7-0.7,1.1-1.5,1.1-2.4c0-0.7-0.2-1.5-0.5-2.2c-0.3-0.7-0.8-1.4-1.4-2.3l-7.6-10.9l6.4-6.1c1.1-1,1.6-2.1,1.6-3.2
		c0-1-0.4-1.8-1.1-2.5c-0.7-0.7-1.6-1-2.7-1c-0.8,0-1.6,0.2-2.1,0.6c-0.4,0.3-0.9,0.8-1.5,1.4l-9.7,10.1v-7.6c0-1.4-0.4-2.6-1.1-3.3
		c-0.7-0.8-1.7-1.2-2.9-1.2c-1.2,0-2.1,0.4-2.9,1.2c-0.7,0.8-1,1.9-1,3.3v21.3c0,0.9,0,1.7,0.1,2.2
		C778.3,493.4,778.4,494,778.7,494.5z"/>
	<path class="st4" d="M811.4,496.5c1.2,0,2.1-0.4,2.7-1.1c0.4-0.6,0.9-1.6,1.5-3.2l1.1-3H827l1.1,2.9c0,0,0,0,0,0
		c0.2,0.4,0.4,1,0.7,1.6c0.3,0.7,0.6,1.2,0.8,1.5c0.3,0.4,0.7,0.7,1.2,0.9c0.5,0.2,1,0.4,1.6,0.4c1.1,0,2-0.4,2.7-1.1
		s1.1-1.6,1.1-2.5c0-0.8-0.3-1.9-1-3.4l-7.5-18.5c-0.4-0.9-0.6-1.7-0.9-2.2c-0.3-0.6-0.6-1.2-0.9-1.7c-0.4-0.6-1-1.1-1.6-1.5
		c-0.7-0.4-1.5-0.6-2.5-0.6c-1,0-1.8,0.2-2.5,0.6c-0.7,0.4-1.2,0.9-1.6,1.5c-0.4,0.6-0.7,1.2-1,2.1l-8.1,20.5
		c-0.3,0.8-0.5,1.4-0.7,1.8c-0.2,0.5-0.2,1-0.2,1.5c0,1,0.4,1.8,1.1,2.5C809.6,496.1,810.5,496.5,811.4,496.5z M819,482.8l2.8-7.9
		l2.9,7.9H819z"/>
	<path class="st4" d="M843.9,496.5c1.1,0,2-0.4,2.7-1.2c0.7-0.7,1-1.8,1-3.1v-11.7l2.6,10.4c0,0,0,0,0,0c0.2,0.6,0.3,1.2,0.5,1.7
		c0.2,0.6,0.4,1.2,0.7,1.7c0.3,0.6,0.8,1.1,1.4,1.5c0.6,0.4,1.4,0.6,2.2,0.6c1.1,0,2.1-0.3,2.8-0.9c0.6-0.6,1.1-1.2,1.3-1.9
		c0.2-0.6,0.4-1.5,0.8-2.7l2.6-10.4v11.7c0,1.3,0.3,2.4,1,3.1c0.7,0.8,1.6,1.1,2.6,1.1c1.1,0,2-0.4,2.7-1.2c0.7-0.7,1-1.8,1-3.1
		v-22.7c0-1.6-0.5-2.7-1.4-3.4c-0.8-0.5-1.9-0.8-3.2-0.8h-1.8c-1.2,0-2.1,0.1-2.7,0.4c-0.7,0.3-1.3,0.8-1.6,1.6
		c-0.3,0.6-0.5,1.4-0.9,2.6l-3.2,12l-3.2-12c-0.3-1.2-0.6-2.1-0.9-2.6c-0.3-0.7-0.9-1.3-1.6-1.6c-0.6-0.2-1.5-0.4-2.7-0.4h-1.8
		c-1.3,0-2.4,0.3-3.2,0.8c-0.9,0.6-1.4,1.8-1.4,3.4v22.7c0,1.4,0.3,2.4,1,3.1C841.9,496.1,842.8,496.5,843.9,496.5z"/>
	<path class="st4" d="M879.2,496.5c1.1,0,2-0.4,2.7-1.2c0.7-0.7,1-1.8,1-3.1v-11.7l2.6,10.4c0,0,0,0,0,0c0.2,0.6,0.3,1.2,0.5,1.7
		c0.2,0.6,0.4,1.2,0.7,1.7c0.3,0.6,0.8,1.1,1.4,1.5c0.6,0.4,1.4,0.6,2.2,0.6c1.1,0,2.1-0.3,2.8-0.9c0.6-0.6,1.1-1.2,1.3-1.9
		c0.2-0.6,0.4-1.5,0.8-2.7l2.6-10.4v11.7c0,1.3,0.3,2.4,1,3.1c0.7,0.8,1.6,1.1,2.6,1.1c1.1,0,2-0.4,2.7-1.2c0.7-0.7,1-1.8,1-3.1
		v-22.7c0-1.6-0.5-2.7-1.4-3.4c-0.8-0.5-1.9-0.8-3.2-0.8h-1.8c-1.2,0-2.1,0.1-2.7,0.4c-0.7,0.3-1.3,0.8-1.6,1.6
		c-0.3,0.6-0.5,1.4-0.9,2.6l-3.2,12l-3.2-12c-0.3-1.2-0.6-2.1-0.9-2.6c-0.3-0.7-0.9-1.3-1.6-1.6c-0.6-0.2-1.5-0.4-2.7-0.4h-1.8
		c-1.3,0-2.4,0.3-3.2,0.8c-0.9,0.6-1.4,1.8-1.4,3.4v22.7c0,1.4,0.3,2.4,1,3.1C877.2,496.1,878.2,496.5,879.2,496.5z"/>
	<path class="st4" d="M914.4,493.3c1.1,1.1,2.6,1.9,4.3,2.5c1.7,0.5,3.7,0.8,6,0.8c1.9,0,3.7-0.2,5.1-0.7c1.5-0.5,2.9-1.3,4-2.3
		c1.3-1.3,2.3-2.7,2.7-4.4c0.5-1.6,0.7-3.6,0.7-5.9v-13.8c0-1.4-0.4-2.6-1.1-3.3c-0.7-0.8-1.7-1.2-2.9-1.2c-1.1,0-2.1,0.4-2.8,1.2
		c-0.7,0.8-1,1.9-1,3.3v14.2c0,2.2-0.4,3.8-1.2,4.9c-0.7,0.9-2.1,1.4-4,1.4c-1.4,0-2.5-0.2-3.3-0.7c-0.7-0.5-1.2-1.1-1.5-2
		c-0.3-1-0.5-2.2-0.5-3.7v-14.1c0-1.4-0.4-2.5-1-3.3c-0.7-0.8-1.7-1.2-2.9-1.2c-1.2,0-2.1,0.4-2.8,1.2c-0.7,0.8-1,1.9-1,3.3v13.8
		c0,2.2,0.3,4.2,0.7,5.9C912.4,490.7,913.3,492.1,914.4,493.3z"/>
	<path class="st4" d="M947.3,496.5c1.1,0,2-0.4,2.7-1.2c0.7-0.7,1-1.8,1-3.2v-13.4l9.1,13.9c0.3,0.5,0.6,0.9,0.9,1.4
		c0.4,0.5,0.7,0.9,1.2,1.3c0.5,0.4,1,0.7,1.5,0.9c0.5,0.2,1.1,0.3,1.7,0.3c1.5,0,4.1-0.6,4.1-4.8v-22.5c0-1.3-0.3-2.4-1-3.1
		c-0.7-0.8-1.6-1.2-2.7-1.2c-1.1,0-2,0.4-2.7,1.2c-0.6,0.7-1,1.8-1,3.1v13.7l-9.3-14.1c-0.3-0.5-0.6-1-0.9-1.4
		c-0.3-0.5-0.7-0.9-1-1.3c-0.4-0.4-0.8-0.7-1.3-0.9c-0.5-0.2-1.1-0.3-1.8-0.3c-0.9,0-1.7,0.2-2.4,0.7c-0.7,0.5-1.3,1.1-1.6,1.9
		c-0.3,0.7-0.4,1.5-0.4,2.6v22.1c0,1.3,0.3,2.4,1,3.1C945.3,496.1,946.2,496.5,947.3,496.5z"/>
	<path class="st4" d="M977.6,515.5H536.2c-1.9,0-3.5,1.6-3.5,3.5s1.6,3.5,3.5,3.5h441.4c1.9,0,3.5-1.6,3.5-3.5
		S979.5,515.5,977.6,515.5z"/>
</g>
<g>
	<rect x="189.9" y="192.4" class="st4" width="8" height="100.3"/>
</g>
<g>
	<rect x="325.9" y="209.1" class="st4" width="8" height="100.3"/>
</g>
<path class="st5" d="M262.5,458.4c-8.3,0-15.5-3.1-21.6-9.4c-6.1-6.3-9.2-13.4-9.2-21.3c0-8.5,3-15.8,9.1-21.8
	c6-6.1,13.3-9.1,21.7-9.1c8.6,0,15.8,3,21.7,9c5.9,6,8.9,13.3,8.9,21.9c0,8.2-3,15.4-9,21.5C278.2,455.4,271,458.4,262.5,458.4z"/>
<path class="st5" d="M135.2,212.9c10.1-5.4,19.6-17.3,25.1-33.8c1.7-5,2.9-10,3.7-15.1h24.7c-0.6,5-1.5,10.1-2.7,15.1
	c-4.1,16.5-11.1,28.4-18.7,33.8H135.2z"/>
<path class="st4" d="M342.7,164h26.7c0.5,6.8,1.7,13.8,3.8,20.6c3.8,12.6,8.1,21.5,15.1,28.3h-31c-5.2-6.8-8.8-15.7-11.7-28.3
	C344,177.8,343,170.8,342.7,164z"/>
<path class="st5" d="M317.2,164h25.5c0.4,6.8,1.3,13.8,2.8,20.6c2.9,12.6,6.8,20.8,11.7,28.3h-30.1c-3.6-6.8-6-15.7-8-28.3
	C318.1,177.8,317.4,170.8,317.2,164z"/>
<path class="st4" d="M186,179.1c1.2-5,2.2-10,2.7-15.1h23.5c-0.4,5-1,10.1-1.9,15.1c-2.8,16.5-7.5,28.4-12.7,33.9l-30.4,0
	C174.8,207.5,181.8,195.6,186,179.1z"/>
<path class="st4" d="M292.9,164h24.3c0.2,6.8,0.9,13.8,1.9,20.6c1.9,12.6,4.8,21.3,8,28.3h-31.6c-0.9-6.8-1.6-15.7-2.1-28.3
	C293.1,177.8,292.9,170.8,292.9,164z"/>
<path class="st5" d="M210.4,179.1c0.8-5,1.5-10,1.9-15.1h24.8c-0.2,5-0.5,10.1-0.9,15.1c-1.4,16.5-3.8,28.4-6.4,33.9h-32
	C202.8,207.5,207.6,195.6,210.4,179.1z"/>
<path class="st4" d="M236.1,179.1c0.4-5,0.7-10,0.9-15.1h28.6c-0.1,5-0.3,10.1-0.5,15.1c-0.7,16.5-2,28.4-3.3,33.9h-32.2
	C232.3,207.5,234.7,195.6,236.1,179.1z"/>
<path class="st5" d="M261.9,212.9c1.3-5.4,2.6-17.4,3.3-33.9c0.2-5,0.4-10,0.5-15.1h24.6h2.6c0.1,6.8,0.2,13.8,0.5,20.6
	c0.5,12.6,1.1,21.5,2.1,28.3L261.9,212.9z"/>
<g>
	<path class="st6" d="M388.2,212.9c0,0.1,0,0.2,0,0.3c0,9-7,16.2-15.5,16.2s-15.5-7.2-15.5-16.2c0-0.1,0-0.3,0-0.4H388.2z"/>
	<path class="st7" d="M357.2,212.9c0,0.1,0,0.2,0,0.3c0,9-6.7,16.2-15.1,16.2c-8.3,0-15.1-7.2-15.1-16.1c0-0.1,0-0.3,0-0.4H357.2z"
		/>
	<path class="st6" d="M327,212.9c0,0.1,0,0.2,0,0.3c0,9-7.1,16.2-15.8,16.2c-8.7,0-15.8-7.3-15.8-16.2c0-0.1,0-0.2,0-0.3H327z"/>
	<path class="st7" d="M295.4,212.9c0,0.1,0,0.2,0,0.3c0,9-7.5,16.2-16.7,16.2c-9.2,0-16.8-7.2-16.8-16.1c0-0.1,0-0.3,0-0.4
		L295.4,212.9z"/>
	<path class="st6" d="M261.9,212.9c0,0.1,0,0.3,0,0.4c0,9-7.1,16.1-16.1,16.1c-8.9,0-16.1-7.2-16.1-16.2c0-0.1,0-0.2,0-0.4
		L261.9,212.9z"/>
	<path class="st7" d="M229.7,212.9c0,0.1,0,0.2,0,0.4c0,9-7.2,16.2-16,16.2s-16.1-7.2-16.1-16.2c0-0.1,0-0.3,0-0.4L229.7,212.9z"/>
	<path class="st7" d="M167.3,212.9c0,0.1,0,0.3,0,0.4c0,9-7.2,16.1-16,16.1c-8.8,0-16-7.3-16-16.2c0-0.1,0-0.2,0-0.3H167.3z"/>
	<path class="st6" d="M197.6,212.9c0,0.1,0,0.3,0,0.4c0,9-6.7,16.1-15.2,16.1c-8.4,0-15.3-7.3-15.3-16.2c0-0.1,0-0.2,0-0.3
		L197.6,212.9z"/>
</g>
<g>
	<rect x="154.2" y="156.2" class="st4" width="226.4" height="8"/>
</g>
<path class="st4" d="M162.2,297c1.3-18.2,11.7-31.5,30.8-31.5c12.1,0,24.5,6.3,29.8,17.8c2,4.4,2.6,9.2,2.8,14.1
	c0.1,3.6-0.1,31.8-0.1,50.3c0,22.7,0,45.3,0,68c0,14.1,2.5,30.6,13.8,40.5c12,10.5,32.3,11.2,45,1.5c0.9-0.6,1.7-1.3,2.4-2.1
	c7.4-7,10.5-16.9,11.6-26.8c0.4-3.7,0.4-7.5,0.2-11.3c-0.4-6.9-0.5-13.8-0.4-20.7c0-8.8-0.6-22.9-0.3-39.8
	c-0.1-5.5,0.1-10.9,0.6-16.3c0.1-1.8,0.2-3.5,0.3-5.3c1.2-17.1,10.4-29.9,27.4-31.4c1.1-0.1,2.3-0.2,3.5-0.2c4.8,0,8.9,0.8,12.4,2.4
	c7.4,2.8,13.8,8.1,17.2,15.5c2,4.4,2.6,9.2,2.8,14.1c0.1,3.6-0.1,31.8-0.1,50.3c0,22.7,0,7,0,29.7c0,0,6.9,94.2-83.1,106.2
	c0,0,0,0,0,0c0,0,0,0,0,0l0,0c-5.9,0.9-11.9,1.3-18.1,1.3c-29.2,0-52.4-8.6-69.7-25.9c-26.6-27.2-29.8-64.2-29.7-100.6
	C161.6,384.4,160.3,323.1,162.2,297z"/>
<path class="st5" d="M681.1,246.1l-2.2-7.2c-1.1-3.5-3.8-4.9-7.3-3.9c-1.7,0.5-3,1.5-3.6,2.7c-0.7,1.3-0.8,2.8-0.2,4.6l2.2,7.2
	c0.5,1.5,0.4,2.9-0.3,4.2c-0.7,1.4-1.8,2.3-3.4,2.8c-1.5,0.5-2.9,0.3-4.3-0.4c-1.3-0.7-2.2-1.8-2.7-3.3l-1.1-3.5
	c-0.3-1-0.9-1.9-1.7-2.6c-1.5-1.5-3.5-1.9-5.6-1.3c-3.5,1.1-4.9,3.8-3.9,7.3l1.1,3.5c0.5,1.5,0.3,2.9-0.4,4.3
	c-0.7,1.4-1.8,2.3-3.4,2.8c-1.5,0.5-2.9,0.3-4.3-0.4c-1.3-0.7-2.2-1.8-2.7-3.3l-2.2-7.2c-0.5-1.7-1.5-3-2.7-3.6
	c-1.3-0.7-2.8-0.7-4.6-0.2c-1.7,0.5-3,1.5-3.6,2.7c-0.7,1.3-0.8,2.8-0.2,4.6l2.2,7.2c1.4,4.5,4.2,7.9,8.5,10.2c2.6,1.4,5.2,2,7.9,2
	c1.7,0,3.4-0.3,5.2-0.8c4.2-1.3,7.5-3.8,9.7-7.5c3.9,1.8,8,2.1,12.3,0.8c4.5-1.4,7.9-4.2,10.1-8.4
	C682.1,255.1,682.5,250.6,681.1,246.1z"/>
<path class="st4" d="M1026.2,303.5c-8-15.3-20.8-28-38.8-35.5c-9-4-19.1-6-30-6h-3.3H816l85.3-49.9c3.9-3.2,6.4-5.6,7.5-7.1
	c4.9-5.8,7.3-12.2,7.3-19c0-5.3-1.6-10.5-4.7-15.6c-3.1-5.1-6.6-8.6-10.3-10.2c-0.8-0.6-1.8-1-2.9-1.5c-1.1-0.4-2.1-0.7-2.9-0.8
	l-6.5-0.6c-4.2,0-9.2,1.1-15,3.3l-6.5,3.3l-107,64.3c-6.3,4.6-10.9,8.6-13.8,11.9c-9.2,11.1-13.8,23.3-13.8,36.5l0.8,10.2
	c1.8,10.7,7.1,19.2,15.9,25.5c6.3,4.5,14,7.5,23.4,9.2c4.9,0.8,8.9,1.3,12.1,1.3c61.5,0,101.3-0.1,162.8,0.2
	c7.9,0,16.5,0.4,22.4,5.6c4.2,3.7,6.3,9.4,7,15.1c1.3,9.6-1.2,20.2-8.5,26.6c-8.2,7.2-20.2,7.6-31.2,7.6c-64,0-106.3,0-170.4,0
	c-9.2-28.2-34.1-50.6-63.1-57c-37.5-8.2-81.5,11.7-96.3,48l-2.9,6.9c-0.5,1.2-1.7,2.1-3.1,2.1h-7.5h-1.5h-22.3
	c-2.3,0-3.9-2.3-3.2-4.4c10-30,1.3-61.6-21.1-83.4c-17.5-17.1-39.7-25.8-63.4-25.8c-20.3,0-38.4,6.2-54.3,18.6
	C398.8,306,387,346,399.7,381.8c5.1,14.5,13.9,27.5,25.8,37.2c12.1,10,23.7,14,38.9,17.9c2.1,0.5,3.2,2.9,2.3,4.8
	c-7.9,17.2-24.6,31.9-28.4,50.7c-2,10,2.8,20.3,11.4,25.7c10.4,6.5,23.3,3.5,33.3-2.5c11.5-6.9,21.3-17.5,29.6-27.9
	c10.5-13.2,18.8-28,24.7-43.8c1.2-3.2,2.1-7,6.3-7c6.1-0.1,44.5,1.1,58.6,1.3c0.7,0,1.5,0,2.1,0.4c0.6,0.4,0.9,1.2,1.2,1.9
	c16.2,41.2,61.2,63.3,104.1,51.2c2-0.6,4.1-1.1,6.1-2c23.4-8.6,44-27.9,52-51.7c8.1,0,16.2-0.1,24.3-0.1h3.1h168.1
	c3.4,0,6.8-0.3,10.1-1.1c22-4.8,38.5-17.1,49.7-37.1C1039.4,370.5,1041.3,332.4,1026.2,303.5z M460.8,371.6
	c-5.8-5.6-8.7-12.3-8.7-19.9c0-8.1,2.8-14.8,8.6-20.3c5.7-5.5,12.5-8.2,20.4-8.2c8.2,0,15.1,2.8,20.6,8.5c5.5,5.6,8.2,12.3,8.2,20.1
	c0,8.1-2.9,14.8-8.8,20.2s-12.5,8.1-20,8.1C473.4,380.1,466.6,377.2,460.8,371.6z M688.1,456.9c-29.3,1.5-53.4-22.6-51.9-51.9
	c1.3-25.1,21.7-45.5,46.7-46.7c29.3-1.5,53.4,22.6,51.9,51.9C733.5,435.3,713.1,455.7,688.1,456.9z"/>
<g>
	<path class="st5" d="M684.1,404.4c-1.8,0.7-2.6,2.8-1.8,4.5c0.7,1.8,2.8,2.6,4.5,1.8c1.8-0.7,2.6-2.8,1.8-4.5
		C687.9,404.5,685.9,403.7,684.1,404.4z"/>
	<path class="st5" d="M725.1,386.7c-4.3-8.3-11.1-14.9-19.4-19.1l0-0.1l-1.3-0.5c-0.7-0.3-1.5-0.7-2.2-1c-0.7-0.3-1.5-0.6-2.2-0.8
		l-1.3-0.5l0,0.1c-8.9-2.8-18.4-2.7-27.2,0.2l0-0.1l-1.2,0.5c-0.7,0.3-1.5,0.6-2.2,0.9c-0.7,0.3-1.5,0.6-2.2,1l-1.2,0.5l0,0.1
		c-8.3,4.3-14.9,11.1-19.1,19.4l-0.1,0l-0.5,1.2c-0.3,0.7-0.7,1.5-1,2.2c-0.3,0.7-0.6,1.5-0.8,2.2l-0.5,1.3l0.1,0
		c-2.8,8.9-2.7,18.4,0.2,27.2l-0.1,0l0.5,1.3c0.3,0.7,0.6,1.5,0.9,2.2c0.3,0.7,0.6,1.4,1,2.1l0.6,1.3l0.1,0
		c4.5,8.5,11.3,15,19.4,19.1l0,0.1l1.7,0.7c1.2,0.5,2.3,1,3.5,1.4l1.8,0.7l0-0.1c4.3,1.3,8.8,2,13.3,2c4.6,0,9.3-0.7,13.9-2.2l0,0.1
		l1.2-0.5c0.8-0.3,1.5-0.6,2.2-0.9c0.7-0.3,1.5-0.6,2.2-1l1.2-0.5l0-0.1c8.3-4.3,14.9-11.1,19.1-19.4l0.1,0l0.5-1.2
		c0.3-0.7,0.7-1.5,1-2.2c0.3-0.7,0.6-1.5,0.8-2.2l0.5-1.3l-0.1,0c2.8-8.9,2.7-18.4-0.2-27.2l0.1,0l-0.5-1.2
		c-0.3-0.7-0.6-1.5-0.9-2.2c-0.3-0.7-0.6-1.5-1-2.2L725.1,386.7L725.1,386.7z M722.3,387.9l-30,12.7l12.2-30.2
		C712.2,374.3,718.3,380.4,722.3,387.9z M690.7,409.7c-0.6,1.4-1.6,2.5-3,3.1s-2.9,0.6-4.3,0c-1.4-0.6-2.5-1.6-3.1-3
		c-0.6-1.4-0.6-2.9,0-4.3c0.6-1.4,1.6-2.5,3-3.1c0.7-0.3,1.4-0.4,2.2-0.4c0.7,0,1.4,0.1,2.1,0.4c1.4,0.6,2.5,1.6,3.1,3
		S691.2,408.3,690.7,409.7z M685.5,365.8c4.1,0,8.2,0.6,12.1,1.8l-12.2,30.2l-12.7-30C676.9,366.5,681.2,365.8,685.5,365.8z
		 M665.8,370.7l12.7,30l-30.2-12.2C652.2,380.9,658.3,374.8,665.8,370.7z M645.5,395.5l30.2,12.2l-30,12.7
		C643.1,412.3,643,403.6,645.5,395.5z M648.6,427.3l30-12.7l-12.2,30.2C659,441,652.8,435,648.6,427.3z M673.4,447.6l12.2-30.2
		l12.7,30C689.9,450.1,681.3,450,673.4,447.6z M705.2,444.5l-12.7-30l30.2,12.2C718.8,434.3,712.7,440.4,705.2,444.5z M725.5,419.7
		l-30.2-12.2l30-12.7C727.9,402.9,728,411.6,725.5,419.7z"/>
	<path class="st5" d="M739,411c0.2-0.6,0.3-1.5,0.1-2l-0.4-1.3c0,0,0,0,0,0h0c-0.1-0.6-0.1-1.3,0-1.8l0.4-1.3c0.2-0.6,0.1-1.5-0.2-2
		l-0.6-1.2c-0.2-0.5-0.4-1.5-0.3-2l0.2-1.4c0.1-0.6-0.1-1.5-0.4-2l-0.7-1.2c-0.3-0.5-0.6-1.4-0.6-2l0-1.4c0-0.6-0.3-1.5-0.6-1.9
		l-0.9-1.1c-0.4-0.5-0.7-1.3-0.8-1.9l-0.2-1.4c-0.1-0.6-0.5-1.4-0.9-1.8l-1-1c-0.4-0.4-0.9-1.2-1-1.8l-0.3-1.3
		c-0.1-0.6-0.6-1.3-1.1-1.7l-1.1-0.8c-0.5-0.4-1-1.1-1.2-1.7l-0.5-1.3c-0.2-0.6-0.8-1.3-1.3-1.5l-1.2-0.7c-0.5-0.3-1.2-1-1.4-1.5
		l-0.6-1.2c-0.3-0.5-1-1.1-1.5-1.4l-1.3-0.5c-0.6-0.2-1.3-0.8-1.6-1.3l-0.8-1.1c-0.3-0.5-1.1-1-1.7-1.2l-1.3-0.4
		c-0.6-0.2-1.4-0.6-1.8-1.1l-0.9-1c-0.4-0.4-1.2-0.9-1.8-1l-1.4-0.2c-0.6-0.1-1.4-0.5-1.9-0.9l-1-0.9c-0.5-0.4-1.3-0.7-1.9-0.7
		l-1.4,0c-0.6,0-1.5-0.3-2-0.6l-1.1-0.8c-0.5-0.3-1.4-0.5-2-0.5l-1.4,0.1c-0.6,0.1-1.5-0.1-2-0.4l-1.2-0.6c-0.5-0.3-1.4-0.4-2-0.2
		l-1.3,0.3c-0.6,0.1-1.5,0.1-2.1-0.1l-1.3-0.4c-0.6-0.2-1.5-0.2-2,0l-1.3,0.5c-0.5,0.2-1.5,0.3-2.1,0.2l-1.3-0.3
		c-0.6-0.1-1.5,0-2,0.3l-1.2,0.6c-0.5,0.3-1.4,0.5-2,0.4l-1.4-0.1c-0.6,0-1.5,0.2-2,0.5l-1.1,0.8c-0.5,0.3-1.4,0.6-2,0.7l-1.4,0.1
		c-0.6,0-1.4,0.4-1.9,0.8l-1,0.9c-0.4,0.4-1.3,0.8-1.9,0.9l-1.3,0.2c-0.6,0.1-1.4,0.6-1.8,1l-0.9,1c-0.4,0.5-1.2,1-1.7,1.1l-1.3,0.4
		c-0.6,0.2-1.3,0.7-1.6,1.2l-0.8,1.1c-0.3,0.5-1,1.1-1.6,1.3l-1.3,0.6c-0.5,0.2-1.2,0.9-1.5,1.4l-0.6,1.2c-0.3,0.5-0.9,1.2-1.4,1.5
		l-1.2,0.7c-0.5,0.3-1.1,1-1.3,1.6l-0.4,1.3c-0.2,0.6-0.7,1.3-1.2,1.7l-1.1,0.9c-0.5,0.4-0.9,1.2-1.1,1.7l-0.3,1.3
		c-0.1,0.6-0.6,1.4-1,1.8l-1,1c-0.4,0.4-0.8,1.3-0.8,1.9l-0.1,1.4c0,0.6-0.4,1.5-0.7,1.9l-0.8,1.1c-0.4,0.5-0.6,1.3-0.6,1.9l0.1,1.4
		c0,0.6-0.2,1.5-0.5,2l-0.7,1.2c-0.3,0.5-0.5,1.4-0.4,2l0.2,1.4c0.1,0.6,0,1.5-0.2,2.1l-0.5,1.3c-0.2,0.6-0.3,1.5-0.1,2l0.4,1.3
		c0,0,0,0,0,0h0c0.1,0.6,0.1,1.3,0,1.8l-0.4,1.3c-0.2,0.6-0.1,1.5,0.2,2l0.6,1.2c0.2,0.5,0.4,1.5,0.3,2l-0.2,1.4
		c-0.1,0.6,0.1,1.5,0.4,2l0.7,1.2c0.3,0.5,0.6,1.4,0.6,2l0,1.4c0,0.6,0.3,1.5,0.6,1.9l0.9,1.1c0.4,0.5,0.7,1.3,0.8,1.9l0.2,1.4
		c0.1,0.6,0.5,1.4,0.9,1.8l1,1c0.4,0.4,0.9,1.2,1,1.8l0.3,1.3c0.1,0.6,0.6,1.3,1.1,1.7l1.1,0.8c0.5,0.4,1,1.1,1.2,1.7l0.5,1.3
		c0.2,0.6,0.8,1.3,1.3,1.5l1.2,0.7c0.5,0.3,1.2,1,1.4,1.5l0.6,1.2c0.3,0.5,1,1.1,1.5,1.4l1.3,0.5c0.6,0.2,1.3,0.8,1.6,1.3l0.8,1.1
		c0.3,0.5,1.1,1,1.7,1.2l1.3,0.4c0.6,0.2,1.4,0.6,1.8,1.1l0.9,1c0.4,0.4,1.2,0.9,1.8,1l1.4,0.2c0.6,0.1,1.4,0.5,1.9,0.9l1,0.9
		c0.5,0.4,1.3,0.7,1.9,0.7l1.4,0c0.6,0,1.5,0.3,2,0.6l1.1,0.8c0.5,0.3,1.4,0.5,2,0.5l1.4-0.1c0.6-0.1,1.5,0.1,2,0.4l1.2,0.6
		c0.5,0.3,1.4,0.4,2,0.2l1.3-0.3c0.6-0.1,1.5-0.1,2.1,0.1l1.3,0.4c0.6,0.2,1.5,0.2,2,0l1.3-0.5c0.5-0.2,1.5-0.3,2.1-0.2l1.3,0.3
		c0.6,0.1,1.5,0,2-0.3l1.2-0.6c0.5-0.3,1.4-0.5,2-0.4l1.4,0.1c0.6,0,1.5-0.2,2-0.5l1.1-0.8c0.5-0.3,1.4-0.6,2-0.7l1.4-0.1
		c0.6,0,1.4-0.4,1.9-0.8l1-0.9c0.4-0.4,1.3-0.8,1.9-0.9l1.3-0.2c0.6-0.1,1.4-0.6,1.8-1l0.9-1c0.4-0.5,1.2-1,1.7-1.1l1.3-0.4
		c0.6-0.2,1.3-0.7,1.6-1.2l0.8-1.1c0.3-0.5,1-1.1,1.6-1.3l1.3-0.6c0.5-0.3,1.2-0.9,1.5-1.4l0.6-1.2c0.3-0.5,0.9-1.2,1.4-1.5l1.2-0.7
		c0.5-0.3,1.1-1,1.3-1.6l0.4-1.3c0.2-0.6,0.7-1.3,1.2-1.7l1.1-0.9c0.5-0.4,0.9-1.2,1.1-1.7l0.3-1.3c0.1-0.6,0.6-1.4,1-1.8l1-1
		c0.4-0.4,0.8-1.3,0.8-1.9l0.1-1.4c0-0.6,0.4-1.5,0.7-1.9l0.8-1.1c0.4-0.5,0.6-1.3,0.6-1.9l-0.1-1.4c0-0.6,0.2-1.5,0.5-2l0.7-1.2
		c0.3-0.5,0.5-1.4,0.4-2l-0.2-1.4c-0.1-0.6,0-1.5,0.2-2.1L739,411z M733,407.6c0,12.4-4.8,24.8-14.4,34.1
		c-18.8,18.2-49,17.8-67.3-1.1c-8.9-9.2-13.4-21.1-13.4-33h0c0-12.4,4.8-24.8,14.4-34.1c18.8-18.2,49-17.8,67.3,1.1
		C728.5,383.8,733,395.7,733,407.6L733,407.6z"/>
</g>
</svg>
